HIERARCHY
ROOT Reference
{
  OFFSET 0 0 0
  CHANNELS 6 Xposition Yposition Zposition Zrotation Xrotation Yrotation
  JOINT Hips
  {
    OFFSET 251.394 724.17 483.536
    CHANNELS 3 Zrotation Xrotation Yrotation
    JOINT RightUpLeg
    {
      OFFSET -0.450515 -23.4426 -1.37224
      CHANNELS 3 Zrotation Xrotation Yrotation
      JOINT RightLeg
      {
        OFFSET 112.821 0.0872427 -0.321027
        CHANNELS 3 Zrotation Xrotation Yrotation
        JOINT RightFoot
        {
          OFFSET 105.718 0.000193788 0.0213165
          CHANNELS 3 Zrotation Xrotation Yrotation
          JOINT RightToeBase
          {
            OFFSET 37.638 -0.000116272 0.00224792
            CHANNELS 3 Zrotation Xrotation Yrotation
            JOINT RightToeEnd
            {
              OFFSET 21.2112 0.114605 -0.000138184
              CHANNELS 3 Zrotation Xrotation Yrotation
              End Site
              {
                OFFSET 0 0 0
              }
            }
          }
        }
      }
    }
    JOINT LeftUpLeg
    {
      OFFSET -0.449508 23.4315 -1.37054
      CHANNELS 3 Zrotation Xrotation Yrotation
      JOINT LeftLeg
      {
        OFFSET 112.821 -0.0485242 -0.372458
        CHANNELS 3 Zrotation Xrotation Yrotation
        JOINT LeftFoot
        {
          OFFSET 105.716 0.00496094 -0.0229443
          CHANNELS 3 Zrotation Xrotation Yrotation
          JOINT LeftToeBase
          {
            OFFSET 37.639 0 0.00158905
            CHANNELS 3 Zrotation Xrotation Yrotation
            JOINT LeftToeEnd
            {
              OFFSET 21.2113 -0.125031 -0.00017438
              CHANNELS 3 Zrotation Xrotation Yrotation
              End Site
              {
                OFFSET 0 0 0
              }
            }
          }
        }
      }
    }
    JOINT Spine
    {
      OFFSET -5.01225 0.000463591 -9.60395
      CHANNELS 3 Zrotation Xrotation Yrotation
      JOINT Spine1
      {
        OFFSET 26.0222 -0.000271301 -0.000155029
        CHANNELS 3 Zrotation Xrotation Yrotation
        JOINT Spine2
        {
          OFFSET 27.173 -0.000155029 -0.000310058
          CHANNELS 3 Zrotation Xrotation Yrotation
          JOINT Spine3
          {
            OFFSET 36.3953 -0.000232544 7.75146e-005
            CHANNELS 3 Zrotation Xrotation Yrotation
            JOINT Neck
            {
              OFFSET 36.4331 0 -3.00261
              CHANNELS 3 Zrotation Xrotation Yrotation
              JOINT Head
              {
                OFFSET 23.0407 -0.000232544 -0.000310058
                CHANNELS 3 Zrotation Xrotation Yrotation
                End Site
                {
                  OFFSET 0 0 0
                }
              }
            }
            JOINT LeftShoulder
            {
              OFFSET 20.1317 6.74168 -12.6061
              CHANNELS 3 Zrotation Xrotation Yrotation
              JOINT LeftArm
              {
                OFFSET 34.2172 -5.81359e-005 7.75146e-005
                CHANNELS 3 Zrotation Xrotation Yrotation
                JOINT LeftForeArm
                {
                  OFFSET 65.4129 -0.0821605 0.0585235
                  CHANNELS 3 Zrotation Xrotation Yrotation
                  JOINT LeftHand
                  {
                    OFFSET 67.3883 0.0359667 0.0112396
                    CHANNELS 3 Zrotation Xrotation Yrotation
                    JOINT LeftHandThumb1
                    {
                      OFFSET 8.78386 2.85353 -6.05362
                      CHANNELS 3 Zrotation Xrotation Yrotation
                      JOINT LeftHandThumb2
                      {
                        OFFSET 8.25498 -0.000116272 -0.000174407
                        CHANNELS 3 Zrotation Xrotation Yrotation
                        JOINT LeftHandThumb3
                        {
                          OFFSET 7.24822 0.000310058 5.81358e-005
                          CHANNELS 3 Zrotation Xrotation Yrotation
                          JOINT LeftHandThumb4
                          {
                            OFFSET 7.0004 -3.87568e-005 -0.000310057
                            CHANNELS 3 Zrotation Xrotation Yrotation
                            End Site
                            {
                              OFFSET 0 0 0
                            }
                          }
                        }
                      }
                    }
                    JOINT LeftHandIndex1
                    {
                      OFFSET 24.0991 -1.01537 -5.40558
                      CHANNELS 3 Zrotation Xrotation Yrotation
                      JOINT LeftHandIndex2
                      {
                        OFFSET 7.26759 -0.000290679 -0.000465086
                        CHANNELS 3 Zrotation Xrotation Yrotation
                        JOINT LeftHandIndex3
                        {
                          OFFSET 7.13628 -1.93787e-005 0.000232543
                          CHANNELS 3 Zrotation Xrotation Yrotation
                          JOINT LeftHandIndex4
                          {
                            OFFSET 5.46699 9.68932e-005 -0.000387571
                            CHANNELS 3 Zrotation Xrotation Yrotation
                            End Site
                            {
                              OFFSET 0 0 0
                            }
                          }
                        }
                      }
                    }
                    JOINT LeftHandMiddle1
                    {
                      OFFSET 24.4604 -2.52837 0.918567
                      CHANNELS 3 Zrotation Xrotation Yrotation
                      JOINT LeftHandMiddle2
                      {
                        OFFSET 7.41627 -5.81359e-005 0.000116271
                        CHANNELS 3 Zrotation Xrotation Yrotation
                        JOINT LeftHandMiddle3
                        {
                          OFFSET 8.76829 3.87573e-005 -7.75142e-005
                          CHANNELS 3 Zrotation Xrotation Yrotation
                          JOINT LeftHandMiddle4
                          {
                            OFFSET 6.07588 -0.00013565 -5.81356e-005
                            CHANNELS 3 Zrotation Xrotation Yrotation
                            End Site
                            {
                              OFFSET 0 0 0
                            }
                          }
                        }
                      }
                    }
                    JOINT LeftHandRing1
                    {
                      OFFSET 22.465 -1.97467 6.3466
                      CHANNELS 3 Zrotation Xrotation Yrotation
                      JOINT LeftHandRing2
                      {
                        OFFSET 7.36666 -0.000232544 0.000387571
                        CHANNELS 3 Zrotation Xrotation Yrotation
                        JOINT LeftHandRing3
                        {
                          OFFSET 8.07624 -0.000465087 -0.000203475
                          CHANNELS 3 Zrotation Xrotation Yrotation
                          JOINT LeftHandRing4
                          {
                            OFFSET 6.04433 0.00013565 3.87571e-005
                            CHANNELS 3 Zrotation Xrotation Yrotation
                            End Site
                            {
                              OFFSET 0 0 0
                            }
                          }
                        }
                      }
                    }
                    JOINT LeftHandPinky1
                    {
                      OFFSET 19.5278 0.352933 10.4295
                      CHANNELS 3 Zrotation Xrotation Yrotation
                      JOINT LeftHandPinky2
                      {
                        OFFSET 6.16525 5.8136e-005 -0.000251921
                        CHANNELS 3 Zrotation Xrotation Yrotation
                        JOINT LeftHandPinky3
                        {
                          OFFSET 6.14448 -0.000329434 -0.00510625
                          CHANNELS 3 Zrotation Xrotation Yrotation
                          JOINT LeftHandPinky4
                          {
                            OFFSET 4.98555 0.000116272 0.000116271
                            CHANNELS 3 Zrotation Xrotation Yrotation
                            End Site
                            {
                              OFFSET 0 0 0
                            }
                          }
                        }
                      }
                    }
                  }
                }
              }
            }
            JOINT RightShoulder
            {
              OFFSET 20.1309 -6.74152 -12.6063
              CHANNELS 3 Zrotation Xrotation Yrotation
              JOINT RightArm
              {
                OFFSET 34.2171 7.75146e-005 7.75146e-005
                CHANNELS 3 Zrotation Xrotation Yrotation
                JOINT RightForeArm
                {
                  OFFSET 65.4492 0.242543 -0.176501
                  CHANNELS 3 Zrotation Xrotation Yrotation
                  JOINT RightHand
                  {
                    OFFSET 67.3888 -0.0867388 0.0597442
                    CHANNELS 3 Zrotation Xrotation Yrotation
                    JOINT RightHandThumb1
                    {
                      OFFSET 8.78307 -2.85357 -6.05302
                      CHANNELS 3 Zrotation Xrotation Yrotation
                      JOINT RightHandThumb2
                      {
                        OFFSET 8.25493 -7.75145e-005 0
                        CHANNELS 3 Zrotation Xrotation Yrotation
                        JOINT RightHandThumb3
                        {
                          OFFSET 7.24797 -0.000174408 0.000155029
                          CHANNELS 3 Zrotation Xrotation Yrotation
                          JOINT RightHandThumb4
                          {
                            OFFSET 7.00062 0 0
                            CHANNELS 3 Zrotation Xrotation Yrotation
                            End Site
                            {
                              OFFSET 0 0 0
                            }
                          }
                        }
                      }
                    }
                    JOINT RightHandIndex1
                    {
                      OFFSET 24.0991 1.01525 -5.40578
                      CHANNELS 3 Zrotation Xrotation Yrotation
                      JOINT RightHandIndex2
                      {
                        OFFSET 7.26773 7.75144e-005 0.000232543
                        CHANNELS 3 Zrotation Xrotation Yrotation
                        JOINT RightHandIndex3
                        {
                          OFFSET 7.13572 -0.000310058 3.87571e-005
                          CHANNELS 3 Zrotation Xrotation Yrotation
                          JOINT RightHandIndex4
                          {
                            OFFSET 5.46717 0 3.87572e-005
                            CHANNELS 3 Zrotation Xrotation Yrotation
                            End Site
                            {
                              OFFSET 0 0 0
                            }
                          }
                        }
                      }
                    }
                    JOINT RightHandMiddle1
                    {
                      OFFSET 24.4603 2.52899 0.918547
                      CHANNELS 3 Zrotation Xrotation Yrotation
                      JOINT RightHandMiddle2
                      {
                        OFFSET 7.41641 -0.000116272 -0.000116272
                        CHANNELS 3 Zrotation Xrotation Yrotation
                        JOINT RightHandMiddle3
                        {
                          OFFSET 8.76765 -3.87577e-005 0.000232543
                          CHANNELS 3 Zrotation Xrotation Yrotation
                          JOINT RightHandMiddle4
                          {
                            OFFSET 6.07609 -0.000193787 -0.000116271
                            CHANNELS 3 Zrotation Xrotation Yrotation
                            End Site
                            {
                              OFFSET 0 0 0
                            }
                          }
                        }
                      }
                    }
                    JOINT RightHandRing1
                    {
                      OFFSET 22.465 1.97571 6.34696
                      CHANNELS 3 Zrotation Xrotation Yrotation
                      JOINT RightHandRing2
                      {
                        OFFSET 7.36684 0.000193786 0.000155029
                        CHANNELS 3 Zrotation Xrotation Yrotation
                        JOINT RightHandRing3
                        {
                          OFFSET 8.07614 -0.000271301 0
                          CHANNELS 3 Zrotation Xrotation Yrotation
                          JOINT RightHandRing4
                          {
                            OFFSET 6.04468 0.000232543 0
                            CHANNELS 3 Zrotation Xrotation Yrotation
                            End Site
                            {
                              OFFSET 0 0 0
                            }
                          }
                        }
                      }
                    }
                    JOINT RightHandPinky1
                    {
                      OFFSET 19.5277 -0.352346 10.4296
                      CHANNELS 3 Zrotation Xrotation Yrotation
                      JOINT RightHandPinky2
                      {
                        OFFSET 6.16508 0 0.000232543
                        CHANNELS 3 Zrotation Xrotation Yrotation
                        JOINT RightHandPinky3
                        {
                          OFFSET 6.14396 -0.000155048 -0.0048834
                          CHANNELS 3 Zrotation Xrotation Yrotation
                          JOINT RightHandPinky4
                          {
                            OFFSET 4.98577 -7.75146e-005 -7.75143e-005
                            CHANNELS 3 Zrotation Xrotation Yrotation
                            End Site
                            {
                              OFFSET 0 0 0
                            }
                          }
                        }
                      }
                    }
                  }
                }
              }
            }
          }
        }
      }
    }
  }
}
MOTION
Frames:	4
Frame Time:	0.0333333
0 0 0 -90 -7.01671e-015 -180 -7.11439 -6.05345 -117.309 -175.27 -19.5067 -94.7077 -0.143736 -0.283888 -26.7707 -8.66189 2.50238 39.6245 -0.575996 0.0779118 60.4361 2.987e-005 -2.08596e-005 -86.4974 176.611 -13.3382 -114.742 -0.108549 -0.36552 -16.3874 -1.6835 -18.0931 49.1481 0.583835 -0.123233 56.8884 -4.52852e-005 -5.66095e-006 -86.4974 -2.23557e-006 7.95151e-006 121.407 3.42234 3.58373 -13.4045 10.4181 4.27951 -15.6552 3.02678 -6.72826 8.6738 -1.18242 -10.2369 25.0608 4.02162 -15.5098 49.5938 102.313 22.8569 -25.402 71.4177 14.6706 12.5406 -0.394637 -5.71504 110.219 -32.0169 -47.1496 -10.3083 -158.644 -1.25062 151.962 0.000256351 -0.000152842 15.1881 0.000139699 -0.000138656 8.95278 0.000459327 -0.00130456 -0.000142575 36.0675 86.5084 -43.6852 -0.000244209 -0.000319304 8.82135 0.000856909 -0.000844477 4.95718 -0.000630142 -0.000540025 -2.32887 -1.6905 86.8814 1.33317 -2.3797e-005 -0.000292713 11.9805 0.000914 -0.000670666 12.8066 -0.000394989 -0.000417659 -2.32825 -0.793793 87.2537 6.7246 -5.22978e-005 -0.000748192 16.0747 0.00141566 -0.000477456 16.9212 -0.00071311 -0.000748384 -2.3276 31.51 82.0866 -25.9269 0.00123069 -0.00121928 18.4917 -0.000108575 -0.000123561 16.6768 0.000115137 -7.25699e-005 -2.3289 -105.102 -23.2636 -22.6399 -77.1151 -20.9691 6.41202 9.99114 -1.20398 30.639 9.69194 6.30921 -0.478944 158.644 1.25054 154.969 -0.000201218 -4.71834e-005 18.1946 6.81963e-005 0.000130404 11.959 -9.15527e-005 1.52588e-005 -180 -36.0641 -86.5085 -17.7554 -5.71752e-005 -0.000135647 14.4454 0.000100107 0.000111665 10.5801 -9.52721e-005 -9.14771e-005 177.672 1.69344 -86.8812 35.2101 2.51458e-005 -0.000110018 17.605 -8.81514e-005 0.000350533 18.4312 -1.95981e-005 -0.000106723 177.672 63.4311 -87.7466 103.217 6.2541e-005 -0.000205942 21.6994 -9.73472e-006 0.000314264 22.5462 -4.45366e-005 3.04924e-005 177.672 63.1793 -86.0904 102.72 -0.000133966 0.000450566 24.1169 7.98748e-005 7.16623e-005 22.3014 -8.90731e-005 6.09847e-005 177.672 
0 0 0 -90 -7.01671e-015 -180 -7.10401 -6.05356 -117.319 -175.276 -19.504 -94.7151 -0.13918 -0.272107 -26.8331 -8.67248 2.49178 39.6784 -0.575997 0.0779035 60.4361 2.98669e-005 -3.14143e-005 -86.4974 176.547 -13.2927 -114.762 -0.109262 -0.366001 -16.4696 -1.67952 -18.0249 49.2884 0.58484 -0.124045 56.8775 -4.52588e-005 -5.90631e-006 -86.4974 -2.22108e-006 7.92772e-006 121.302 3.42627 3.56357 -13.4403 10.3873 4.25463 -15.6193 3.02606 -6.74073 8.65385 -1.18556 -10.2049 25.1586 4.0019 -15.4773 49.4817 102.273 22.8633 -25.3577 71.4681 14.6668 12.5573 -0.392805 -5.76813 110.241 -31.9844 -47.191 -10.3125 -158.644 -1.25062 151.962 0.00025741 -0.000154937 15.1881 0.000140303 -0.00014337 8.95278 0.000459328 -0.00130698 -0.000142575 36.0673 86.5084 -43.685 -0.000244422 -0.000321793 8.82135 0.000856905 -0.000847031 4.95718 -0.000630133 -0.000542367 -2.32887 -1.6905 86.8814 1.33317 -2.48447e-005 -0.000293167 11.9805 0.000914178 -0.000670782 12.8066 -0.000395008 -0.000421058 -2.32826 -0.793793 87.2537 6.7246 -5.26224e-005 -0.000753375 16.0747 0.00141575 -0.000477423 16.9212 -0.000713116 -0.000748397 -2.3276 31.51 82.0866 -25.9269 0.00123094 -0.00122693 18.4917 -0.000109396 -0.000123752 16.6768 0.000115142 -7.59914e-005 -2.3289 -105.176 -23.2563 -22.6712 -76.9916 -20.9615 6.52257 9.98434 -1.22765 30.668 9.66879 6.30407 -0.536699 158.644 1.25051 154.969 -0.000201264 -5.20242e-005 18.1946 6.8192e-005 0.00012799 11.959 -9.15527e-005 -7.01671e-015 -180 -36.0641 -86.5085 -17.7555 -5.77371e-005 -0.00013817 14.4454 0.000100195 0.000111714 10.5801 -9.52721e-005 -9.14771e-005 177.672 1.69345 -86.8812 35.2101 2.06505e-005 -0.000114823 17.6049 -8.53354e-005 0.000347291 18.4312 -1.95981e-005 -0.000106723 177.672 63.4315 -87.7466 103.217 6.23259e-005 -0.000205985 21.6994 -1.0243e-005 0.000311649 22.5462 -4.45366e-005 3.04924e-005 177.672 63.1795 -86.0904 102.721 -0.000134591 0.000446917 24.1169 7.91242e-005 6.65315e-005 22.3014 -8.90731e-005 6.09847e-005 177.672 
0 0 0 -90 -7.01671e-015 -180 -7.09074 -6.03665 -117.323 -175.294 -19.4969 -94.7203 -0.134607 -0.260329 -26.8955 -8.68702 2.49516 39.7286 -0.575997 0.0778922 60.4361 2.98608e-005 -4.29929e-005 -86.4974 176.469 -13.237 -114.761 -0.109137 -0.36286 -16.583 -1.68672 -17.9284 49.4553 0.585846 -0.124858 56.8665 -4.52224e-005 -9.64238e-006 -86.4974 -2.20619e-006 7.90318e-006 121.194 3.43714 3.5416 -13.4678 10.3613 4.23009 -15.5731 3.03069 -6.77068 8.63573 -1.20294 -10.1928 25.2635 3.97935 -15.4688 49.345 102.228 22.8694 -25.316 71.5394 14.6741 12.5821 -0.390801 -5.83127 110.258 -31.9159 -47.1896 -10.2715 -158.644 -1.25062 151.962 0.000256834 -0.000159253 15.1881 0.000140206 -0.000150203 8.95278 0.000459328 -0.00130698 -0.000142575 36.0672 86.5084 -43.6849 -0.000244356 -0.000327765 8.82135 0.000856893 -0.00085136 4.95718 -0.000630125 -0.000545708 -2.32887 -1.6905 86.8814 1.33317 -2.41539e-005 -0.000293262 11.9805 0.00091411 -0.000675778 12.8066 -0.000395001 -0.000423459 -2.32826 -0.793796 87.2537 6.72461 -5.23274e-005 -0.000759938 16.0747 0.0014157 -0.000479849 16.9212 -0.000713116 -0.000750823 -2.3276 31.51 82.0866 -25.9268 0.00123086 -0.00123739 18.4917 -0.00010881 -0.000123519 16.6768 0.000115117 -8.53496e-005 -2.3289 -105.259 -23.2478 -22.7116 -76.8527 -20.9522 6.65674 9.97967 -1.25183 30.7024 9.63006 6.33162 -0.599555 158.644 1.2505 154.969 -0.000201328 -5.68667e-005 18.1946 6.81894e-005 0.000124578 11.959 -9.15527e-005 -7.01671e-015 -180 -36.0641 -86.5085 -17.7555 -5.69336e-005 -0.000142107 14.4454 9.99094e-005 0.000111697 10.5801 -9.52721e-005 -9.14771e-005 177.672 1.69346 -86.8812 35.2101 2.78734e-005 -0.000114907 17.6049 -8.83166e-005 0.000341469 18.4312 -1.95981e-005 -0.000106723 177.672 63.4317 -87.7466 103.217 6.53153e-005 -0.000204748 21.6994 -1.07275e-005 0.000307282 22.5462 -4.51565e-005 1.52462e-005 177.672 63.1795 -86.0904 102.721 -0.0001343 0.000441698 24.1169 7.90995e-005 5.97036e-005 22.3014 -8.9693e-005 4.57386e-005 177.672 
0 0 0 -90 -7.01671e-015 -180 -7.07952 -6.01906 -117.342 -175.289 -19.5035 -94.7257 -0.13847 -0.25312 -26.968 -8.69282 2.48584 39.7819 -0.575997 0.0778727 60.4361 2.98572e-005 -6.54277e-005 -86.4974 176.479 -13.232 -114.746 -0.117673 -0.38921 -16.691 -1.6602 -17.8946 49.5316 0.588382 -0.126232 56.8964 -4.52229e-005 -1.45113e-005 -86.4974 -2.19597e-006 7.88628e-006 121.12 3.45041 3.51937 -13.4887 10.3498 4.20982 -15.5512 3.03422 -6.80399 8.59391 -1.22162 -10.2074 25.3323 3.97919 -15.4938 49.2875 102.193 22.8725 -25.2961 71.5895 14.6834 12.5853 -0.389839 -5.87442 110.255 -31.8111 -47.1692 -10.2157 -158.644 -1.25061 151.962 0.000256353 -0.00016661 15.1881 0.000139748 -0.000163272 8.95278 0.000459327 -0.00131289 -0.000142575 36.0671 86.5083 -43.6848 -0.000244349 -0.000337166 8.82135 0.000856867 -0.000858737 4.95718 -0.000630112 -0.000552029 -2.32887 -1.6905 86.8814 1.33317 -2.3841e-005 -0.000293419 11.9805 0.00091408 -0.000680124 12.8066 -0.000395001 -0.000429832 -2.32825 -0.7938 87.2537 6.72461 -5.22337e-005 -0.000772239 16.0747 0.00141573 -0.000484681 16.9212 -0.000713122 -0.000754249 -2.3276 31.51 82.0866 -25.9269 0.00123084 -0.00125543 18.4917 -0.000108385 -0.000123355 16.6768 0.000115105 -0.00010191 -2.3289 -105.327 -23.242 -22.7381 -76.7548 -20.9274 6.72719 9.98047 -1.27514 30.699 9.61277 6.36935 -0.622174 158.644 1.25045 154.968 -0.000201486 -6.65619e-005 18.1946 6.84598e-005 0.000118726 11.959 -9.15527e-005 -1.52588e-005 -180 -36.0641 -86.5085 -17.7554 -5.75036e-005 -0.000149046 14.4454 0.000100078 0.00010935 10.5801 -9.5892e-005 -0.000106723 177.672 1.69344 -86.8812 35.2101 2.21161e-005 -0.000123938 17.605 -8.2846e-005 0.000333945 18.4312 -1.95981e-005 -0.000106723 177.672 63.432 -87.7466 103.218 5.8295e-005 -0.000210908 21.6994 -8.10133e-006 0.000300386 22.5462 -4.51565e-005 1.52462e-005 177.672 63.1798 -86.0904 102.721 -0.000133919 0.00043257 24.1169 7.88994e-005 4.59795e-005 22.3014 -9.03129e-005 3.04924e-005 177.672 
